<svg width="129" height="129" viewBox="0 0 129 129" fill="none" xmlns="http://www.w3.org/2000/svg">
<g clip-path="url(#clip0_73_563)">
<path d="M64.5 129C100.122 129 129 100.122 129 64.5C129 28.8776 100.122 0 64.5 0C28.8776 0 0 28.8776 0 64.5C0 100.122 28.8776 129 64.5 129Z" fill="#32BA7C"/>
<path d="M48.0189 93.5962L81.1845 126.762C108.653 119.437 129 94.4101 129 64.5C129 63.8896 129 63.2792 129 62.6688L102.956 38.6593L48.0189 93.5962Z" fill="#0AA06E"/>
<path d="M66.1278 78.9464C68.9763 81.795 68.9763 86.6782 66.1278 89.5268L60.2271 95.4274C57.3785 98.276 52.4953 98.276 49.6467 95.4274L23.806 69.3833C20.9574 66.5347 20.9574 61.6514 23.806 58.8028L29.7066 52.9022C32.5552 50.0536 37.4385 50.0536 40.2871 52.9022L66.1278 78.9464Z" fill="white"/>
<path d="M88.7129 33.9795C91.5615 31.1309 96.4448 31.1309 99.2934 33.9795L105.194 39.8801C108.043 42.7287 108.043 47.612 105.194 50.4606L60.4306 95.0205C57.582 97.8691 52.6988 97.8691 49.8502 95.0205L43.9495 89.1199C41.101 86.2713 41.101 81.388 43.9495 78.5394L88.7129 33.9795Z" fill="white"/>
</g>
<defs>
<clipPath id="clip0_73_563">
<rect width="129" height="129" fill="white"/>
</clipPath>
</defs>
</svg>
