<svg width="250" height="185" viewBox="0 0 250 185" fill="none" xmlns="http://www.w3.org/2000/svg">
<g clip-path="url(#clip0_134_2)">
<path d="M117.5 178C153.122 178 182 149.122 182 113.5C182 77.8776 153.122 49 117.5 49C81.8776 49 53 77.8776 53 113.5C53 149.122 81.8776 178 117.5 178Z" fill="#32BA7C"/>
<path d="M101.019 142.596L134.185 175.762C161.653 168.437 182 143.41 182 113.5C182 112.89 182 112.279 182 111.669L155.956 87.6593L101.019 142.596Z" fill="#0AA06E"/>
<path d="M119.128 127.946C121.976 130.795 121.976 135.678 119.128 138.527L113.227 144.427C110.379 147.276 105.495 147.276 102.647 144.427L76.806 118.383C73.9574 115.535 73.9574 110.651 76.806 107.803L82.7066 101.902C85.5552 99.0536 90.4385 99.0536 93.2871 101.902L119.128 127.946Z" fill="white"/>
<path d="M141.713 82.9795C144.562 80.1309 149.445 80.1309 152.293 82.9795L158.194 88.8801C161.043 91.7287 161.043 96.612 158.194 99.4606L113.431 144.021C110.582 146.869 105.699 146.869 102.85 144.021L96.9495 138.12C94.101 135.271 94.101 130.388 96.9495 127.539L141.713 82.9795Z" fill="white"/>
</g>
<line x1="187.366" y1="60.1953" x2="197.195" y2="52.6342" stroke="#32BA7C" stroke-width="4" stroke-linecap="round"/>
<line x1="223.5" y1="105.5" x2="247.5" y2="105.5" stroke="#32BA7C" stroke-width="5" stroke-linecap="round"/>
<line x1="217.5" y1="115.5" x2="237.5" y2="115.5" stroke="#32BA7C" stroke-width="5" stroke-linecap="round"/>
<line x1="210.5" y1="125.5" x2="229.5" y2="125.5" stroke="#32BA7C" stroke-width="5" stroke-linecap="round"/>
<line x1="181.246" y1="163.333" x2="198.71" y2="180.797" stroke="#32BA7C" stroke-width="5" stroke-linecap="round"/>
<line x1="61" y1="169.172" x2="67.1716" y2="163" stroke="#32BA7C" stroke-width="4" stroke-linecap="round"/>
<line x1="2" y1="106" x2="40" y2="106" stroke="#32BA7C" stroke-width="4" stroke-linecap="round"/>
<line x1="27.5381" y1="31.4019" x2="48.7097" y2="52.5734" stroke="#32BA7C" stroke-width="4" stroke-linecap="round"/>
<line x1="121" y1="29" x2="121" y2="2" stroke="#32BA7C" stroke-width="4" stroke-linecap="round"/>
<defs>
<clipPath id="clip0_134_2">
<rect width="129" height="129" fill="white" transform="translate(53 49)"/>
</clipPath>
</defs>
</svg>
