<svg width="18" height="28" viewBox="0 0 18 28" fill="none" xmlns="http://www.w3.org/2000/svg">
<g clip-path="url(#clip0_10_225)">
<path fill-rule="evenodd" clip-rule="evenodd" d="M0 11.2041L10.9843 0L18 7.09342L16.8684 7.63574L11.9963 2.71615L11.9387 2.65462C11.724 2.44357 11.4366 2.32887 11.1397 2.3357C10.8428 2.34254 10.5607 2.47036 10.3553 2.69108L9.95891 3.11491L9.94562 3.10124L8.08538 5.12923L0.961122 12.1725L0 11.2041ZM2.96973 17.5114L2.9033 17.9489C2.72835 19.1156 2.44488 21.0114 2.32972 21.6813C2.32188 21.7215 2.30924 21.7605 2.29208 21.7975C2.27905 21.8329 2.2595 21.8654 2.2345 21.8932C2.10287 22.0656 1.98371 22.2476 1.87795 22.4378C1.80069 22.5716 1.74392 22.7169 1.70965 22.8685C1.69288 22.9435 1.69288 23.0214 1.70965 23.0964C1.72855 23.1652 1.7653 23.2274 1.81594 23.2764C2.89665 24.3929 4.0438 25.5208 5.0935 26.6602C5.2508 26.81 5.43847 26.9221 5.64297 26.9883C5.84748 27.0545 6.06372 27.0732 6.27608 27.043C6.67387 26.9902 7.06654 26.9026 7.4498 26.7809C7.86615 26.6865 8.276 26.564 8.67667 26.4141C9.07584 26.2561 9.44359 26.0244 9.76181 25.7305L10.6654 24.7598C10.6776 24.7416 10.6917 24.7248 10.7074 24.7096C10.734 24.6823 10.8115 24.6025 10.9289 24.4954C11.5268 23.8939 12.2576 23.1533 11.8435 22.5381L11.5401 22.2259L11.3187 22.431L11.0285 22.6794C10.8735 22.8184 10.7296 22.9505 10.5989 23.0827C10.5108 23.1733 10.3913 23.2243 10.2667 23.2243C10.1421 23.2243 10.0226 23.1733 9.93455 23.0827C9.84645 22.992 9.79695 22.8691 9.79695 22.7409C9.79695 22.6127 9.84645 22.4897 9.93455 22.3991C10.0741 22.2555 10.2424 22.1006 10.4173 21.9434L10.4395 21.9251C11.0263 21.3896 11.6973 20.7858 11.3696 20.2845L11.013 19.9176C10.9289 20.0065 10.8403 20.0908 10.7517 20.1751C10.6631 20.2594 10.5303 20.3848 10.4151 20.485L10.3863 20.5078C10.2357 20.6445 10.094 20.7721 9.96334 20.9066C9.91971 20.9515 9.86793 20.9871 9.81093 21.0114C9.75393 21.0357 9.69284 21.0482 9.63115 21.0482C9.56946 21.0482 9.50837 21.0357 9.45138 21.0114C9.39438 20.9871 9.34259 20.9515 9.29897 20.9066C9.25534 20.8617 9.22074 20.8084 9.19713 20.7498C9.17352 20.6911 9.16137 20.6283 9.16137 20.5648C9.16137 20.5013 9.17352 20.4384 9.19713 20.3798C9.22074 20.3212 9.25534 20.2679 9.29897 20.223C9.43406 20.084 9.60015 19.9313 9.7751 19.7673L9.80167 19.7422C10.3885 19.209 11.0595 18.6029 10.734 18.1016C10.61 17.9762 10.4838 17.8509 10.3642 17.721L9.37205 18.7419C9.28395 18.8325 9.16446 18.8834 9.03986 18.8834C8.91527 18.8834 8.79578 18.8325 8.70768 18.7419C8.61958 18.6512 8.57008 18.5283 8.57008 18.4001C8.57008 18.2719 8.61958 18.1489 8.70768 18.0583L10.7008 16.0075C10.8878 15.8251 11.0311 15.6004 11.1193 15.3512C11.1933 15.1464 11.1995 14.9221 11.1371 14.7132C11.1166 14.6502 11.0891 14.5898 11.0551 14.5332C11.0224 14.4787 10.9838 14.4283 10.94 14.3828C10.8955 14.3364 10.8457 14.2959 10.7916 14.262C10.737 14.2284 10.6791 14.2009 10.6188 14.18C10.4161 14.1174 10.1989 14.1254 10.001 14.2028C9.75397 14.3035 9.53164 14.4591 9.3499 14.6585L4.55979 19.61C4.47169 19.7007 4.3522 19.7516 4.22761 19.7516C4.10301 19.7516 3.98352 19.7007 3.89542 19.61C3.80732 19.5194 3.75783 19.3964 3.75783 19.2682C3.75783 19.14 3.80732 19.0171 3.89542 18.9264L4.10359 18.7145L2.96088 17.5137L2.96973 17.5114ZM5.21752 17.5752L8.06545 14.6449L8.0123 14.6289C7.63347 14.5009 7.29958 14.2612 7.05216 13.9395C6.80475 13.6178 6.65473 13.2283 6.62079 12.8195C6.58685 12.4108 6.67048 12.0007 6.86128 11.6405C7.05207 11.2803 7.3416 10.9857 7.69384 10.7935C8.04609 10.6013 8.44549 10.5199 8.84235 10.5594C9.23921 10.5989 9.61601 10.7577 9.92586 11.0159C10.2357 11.2741 10.4649 11.6203 10.585 12.0116C10.7051 12.4028 10.7107 12.8217 10.6011 13.2161C10.7072 13.2318 10.8116 13.2569 10.9134 13.2913C11.0412 13.3346 11.1638 13.3927 11.2788 13.4645C11.3951 13.5382 11.5028 13.6254 11.5999 13.7243C11.6421 13.7677 11.682 13.8133 11.7195 13.861L14.4213 11.0309C14.1787 10.7721 14.0451 10.4253 14.0492 10.0658C14.0533 9.70627 14.195 9.36289 14.4434 9.11003L11.9719 6.51237C11.7206 6.76292 11.3833 6.9013 11.0333 6.89746C10.6833 6.89362 10.349 6.74787 10.1029 6.49186L3.32185 13.6491C3.56731 13.905 3.70495 14.25 3.70495 14.6095C3.70495 14.9691 3.56731 15.3141 3.32185 15.57L5.22859 17.5752H5.21752ZM12.034 15.6201C11.9045 16.0392 11.6762 16.4189 11.3696 16.7253L11.044 17.0579L11.4294 17.4544L11.4648 17.4954L11.4958 17.5387C11.6773 17.7638 11.786 18.0415 11.8067 18.3332C11.8273 18.6249 11.7589 18.916 11.611 19.1657H11.622C11.6478 19.1836 11.6722 19.2034 11.6951 19.2249L12.0716 19.6146C12.0851 19.6266 12.097 19.6404 12.107 19.6556L12.1358 19.6943C12.3482 19.9672 12.4597 20.3087 12.4503 20.6582C12.4327 20.9466 12.3393 21.2246 12.1801 21.4626L12.5544 21.8454L12.5898 21.8887L12.6164 21.9274C13.5332 23.2171 12.4658 24.2904 11.6043 25.1562C11.5468 25.2269 11.4515 25.3135 11.3829 25.3841C11.0817 25.7077 10.7185 26.1452 10.4085 26.4323C9.54035 27.2412 8.68553 27.4577 7.69562 27.7061C7.25388 27.8469 6.80003 27.9438 6.3403 27.9954C5.99796 28.0343 5.65149 27.9953 5.32543 27.8811C4.99937 27.7669 4.7017 27.5803 4.45349 27.3346L1.18036 23.9668C1.01542 23.8083 0.89397 23.6079 0.828248 23.3857C0.767677 23.1567 0.7616 22.9159 0.810531 22.6839C0.855508 22.4661 0.930058 22.256 1.03199 22.0596C1.15038 21.8267 1.2882 21.6048 1.4439 21.3965C1.52805 20.902 1.71186 19.6419 1.88681 18.4844C1.98647 17.7894 2.08391 17.1354 2.15699 16.6615L0.316683 14.7269L11.2057 3.41797L17.4574 9.99186L12.034 15.6201Z" fill="#ADADAD"/>
</g>
<defs>
<clipPath id="clip0_10_225">
<rect width="18" height="28" fill="white"/>
</clipPath>
</defs>
</svg>
