<svg width="25" height="17" viewBox="0 0 25 17" fill="none" xmlns="http://www.w3.org/2000/svg">
<g clip-path="url(#clip0_14_332)">
<path fill-rule="evenodd" clip-rule="evenodd" d="M13.9872 12.9516C13.7838 12.9516 13.623 12.7281 13.623 12.4544C13.623 12.1808 13.7858 11.9572 13.9872 11.9572H21.2931C21.4966 11.9572 21.6553 12.1808 21.6553 12.4544C21.6553 12.7281 21.4925 12.9516 21.2931 12.9516H13.9872ZM5.22054 0H19.7795C19.9548 0.000683723 20.1246 0.0633705 20.2602 0.17751C20.3958 0.29165 20.489 0.450275 20.5241 0.62669H22.3124C23.0242 0.628891 23.7062 0.920046 24.2097 1.43663C24.7132 1.95321 24.9973 2.65329 25 3.38412V14.2467C24.9971 14.9753 24.7133 15.6731 24.2106 16.1874C23.7085 16.704 23.0273 16.9948 22.3165 16.9958H2.68758C1.9765 16.9936 1.29507 16.703 0.791689 16.1874C0.288307 15.6717 0.00375344 14.9727 0 14.2426L0 3.37995C0.000763694 3.01905 0.0708844 2.66187 0.206343 2.32885C0.341802 1.99584 0.539935 1.69354 0.789388 1.4393C1.03794 1.18198 1.33362 0.977702 1.6594 0.838237C1.98518 0.698772 2.33462 0.626876 2.68758 0.62669H4.47591C4.51063 0.450096 4.60372 0.291247 4.73942 0.177042C4.87511 0.062836 5.04508 0.000291984 5.22054 0V0ZM20.5485 1.91558V2.01794C20.548 2.22442 20.4678 2.42229 20.3256 2.5683C20.1834 2.7143 19.9907 2.79657 19.7896 2.79712H5.22054C5.01944 2.79657 4.82673 2.7143 4.68453 2.5683C4.54233 2.42229 4.46221 2.22442 4.46167 2.01794V1.91558H2.68758C2.4987 1.91446 2.31149 1.95193 2.13685 2.02581C1.96221 2.09969 1.80362 2.2085 1.67033 2.34591C1.53687 2.48294 1.43127 2.64585 1.35967 2.82516C1.28807 3.00447 1.2519 3.1966 1.25326 3.39039V14.253C1.25592 14.64 1.40682 15.0103 1.67332 15.284C1.93983 15.5576 2.30052 15.7126 2.67741 15.7153H22.3022C22.4911 15.7164 22.6783 15.6789 22.853 15.6051C23.0276 15.5312 23.1862 15.4224 23.3195 15.285C23.4533 15.1481 23.5593 14.9853 23.6313 14.806C23.7032 14.6266 23.7397 14.4344 23.7386 14.2405V3.37786C23.7349 2.99122 23.5837 2.62149 23.3174 2.34808C23.0511 2.07467 22.691 1.91939 22.3145 1.91558H20.5485ZM9.11662 10.0625C10.557 11.3577 11.5011 9.49226 12.207 12.5338C12.206 12.5962 12.1928 12.6578 12.1681 12.7149C12.1434 12.772 12.1078 12.8234 12.0634 12.8661C12.019 12.9088 11.9667 12.9419 11.9096 12.9634C11.8525 12.9849 11.7917 12.9944 11.731 12.9913H3.97135C3.91073 12.9938 3.85023 12.9839 3.79336 12.9622C3.73649 12.9405 3.68439 12.9074 3.64009 12.8648C3.59579 12.8222 3.56018 12.7711 3.53532 12.7142C3.51046 12.6574 3.49685 12.5961 3.49528 12.5338C4.18294 9.53822 5.01099 11.3493 6.56738 10.0813C6.6457 9.88684 6.71362 9.6881 6.77083 9.48599C6.8217 9.32305 6.50635 9.00135 6.40055 8.82797L6.00789 8.18457C5.88202 8.01382 5.80457 7.81068 5.7841 7.59757C5.78105 7.5258 5.79429 7.45429 5.82275 7.38867C5.85388 7.32385 5.90084 7.26843 5.95907 7.22782C5.98873 7.20699 6.02086 7.19014 6.05469 7.17769C6.02641 6.79403 6.01961 6.40903 6.03434 6.02458C6.05062 5.93784 6.07375 5.8526 6.10352 5.76972C6.18739 5.51206 6.33017 5.27878 6.5199 5.08942C6.70963 4.90007 6.94079 4.76014 7.19401 4.68137C7.44019 4.59572 7.34456 4.38683 7.60091 4.40145C8.18685 4.43278 9.0922 4.81924 9.43197 5.23704C9.92025 5.81359 9.79411 6.52384 9.77783 7.22991C9.82704 7.24244 9.87199 7.26851 9.90784 7.30532C9.94369 7.34213 9.96908 7.38828 9.98128 7.43881C10.0038 7.6295 9.96676 7.82261 9.87549 7.99029V8.00492L9.41366 8.77365C9.25597 9.06939 9.06026 9.34201 8.83179 9.58417C8.76465 9.64058 9.06169 10.0145 9.10645 10.0751L9.11662 10.0625ZM13.9994 6.9291C13.796 6.9291 13.6353 6.70558 13.6353 6.43192C13.6353 6.15827 13.798 5.93475 13.9994 5.93475H18.3533C18.5567 5.93475 18.7174 6.15827 18.7174 6.43192C18.7174 6.70558 18.5547 6.9291 18.3533 6.9291H13.9994ZM13.9994 9.93094C13.796 9.93094 13.6353 9.70742 13.6353 9.43377C13.6353 9.16011 13.798 8.93659 13.9994 8.93659H20.9167C21.1202 8.93659 21.2809 9.16011 21.2809 9.43377C21.2809 9.70742 21.1182 9.93094 20.9167 9.93094H13.9994Z" fill="#ADADAD"/>
</g>
<defs>
<clipPath id="clip0_14_332">
<rect width="25" height="17" fill="white"/>
</clipPath>
</defs>
</svg>
