<svg width="22" height="22" viewBox="0 0 22 22" fill="none" xmlns="http://www.w3.org/2000/svg">
<path d="M2.75 19.25H19.25" stroke="#ADADAD" stroke-width="1.25" stroke-linecap="round" stroke-linejoin="round"/>
<path d="M13.75 7.33333C13.75 8.06268 14.0397 8.76215 14.5555 9.27788C15.0712 9.7936 15.7707 10.0833 16.5 10.0833C17.2293 10.0833 17.9288 9.7936 18.4445 9.27788C18.9603 8.76215 19.25 8.06268 19.25 7.33333V6.41667H2.75L4.58333 2.75H17.4167L19.25 6.41667M2.75 6.41667V7.33333C2.75 8.06268 3.03973 8.76215 3.55546 9.27788C4.07118 9.7936 4.77065 10.0833 5.5 10.0833C6.22935 10.0833 6.92882 9.7936 7.44454 9.27788C7.96027 8.76215 8.25 8.06268 8.25 7.33333V6.41667H2.75ZM8.25 7.33333C8.25 8.06268 8.53973 8.76215 9.05546 9.27788C9.57118 9.7936 10.2707 10.0833 11 10.0833C11.7293 10.0833 12.4288 9.7936 12.9445 9.27788C13.4603 8.76215 13.75 8.06268 13.75 7.33333V6.41667L8.25 7.33333Z" stroke="#ADADAD" stroke-width="1.25" stroke-linecap="round" stroke-linejoin="round"/>
<path d="M4.58337 19.25V9.94583" stroke="#ADADAD" stroke-width="1.25" stroke-linecap="round" stroke-linejoin="round"/>
<path d="M17.4166 19.25V9.94583" stroke="#ADADAD" stroke-width="1.25" stroke-linecap="round" stroke-linejoin="round"/>
<path d="M8.25 19.25V15.5833C8.25 15.0971 8.44315 14.6308 8.78697 14.287C9.13079 13.9432 9.5971 13.75 10.0833 13.75H11.9167C12.4029 13.75 12.8692 13.9432 13.213 14.287C13.5568 14.6308 13.75 15.0971 13.75 15.5833V19.25" stroke="#ADADAD" stroke-width="1.25" stroke-linecap="round" stroke-linejoin="round"/>
</svg>
